<svg width="36" height="36" viewBox="0 0 36 36" fill="none" xmlns="http://www.w3.org/2000/svg">
<path fill-rule="evenodd" clip-rule="evenodd" d="M18.411 2.48758C27.4548 2.48758 34.7863 9.65106 34.7863 18.4874C34.7863 27.3241 27.4548 34.4876 18.411 34.4876C9.3672 34.4876 2.03577 27.3241 2.03577 18.4874C2.03577 9.65106 9.3672 2.48758 18.411 2.48758Z" fill="#070716"/>
<path d="M20.8053 12.4887H22.4621V9.62675C22.1763 9.58775 21.1933 9.5 20.0484 9.5C17.6597 9.5 16.0233 10.9902 16.0233 13.7292V16.25H13.3873V19.4495H16.0233V27.5H19.2552V19.4503H21.7846L22.1861 16.2508H19.2544V14.0465C19.2552 13.1217 19.5062 12.4887 20.8053 12.4887V12.4887Z" fill="white"/>
</svg>
