<svg width="37" height="36" viewBox="0 0 37 36" fill="none" xmlns="http://www.w3.org/2000/svg">
<path fill-rule="evenodd" clip-rule="evenodd" d="M19.249 2.48758C28.2928 2.48758 35.6242 9.65106 35.6242 18.4874C35.6242 27.3241 28.2928 34.4876 19.249 34.4876C10.2052 34.4876 2.87372 27.3241 2.87372 18.4874C2.87372 9.65106 10.2052 2.48758 19.249 2.48758Z" fill="#070716"/>
<path d="M27.4317 15.204C27.3934 14.3539 27.2527 13.7694 27.0511 13.263C26.8432 12.7254 26.5233 12.2441 26.1042 11.844C25.6947 11.4377 25.1989 11.1219 24.655 10.922C24.1337 10.725 23.5387 10.5875 22.6686 10.5501C21.792 10.5094 21.5137 10.5 19.2905 10.5C17.0672 10.5 16.789 10.5094 15.9156 10.5469C15.0455 10.5844 14.4474 10.722 13.9292 10.9188C13.3789 11.1219 12.8863 11.4345 12.4768 11.844C12.0609 12.2441 11.7379 12.7286 11.5331 13.2599C11.3316 13.7694 11.1909 14.3507 11.1525 15.2009C11.1109 16.0574 11.1013 16.3293 11.1013 18.5016C11.1013 20.6739 11.1109 20.9458 11.1492 21.7991C11.1876 22.6492 11.3284 23.2337 11.53 23.7401C11.7379 24.2777 12.0609 24.759 12.4768 25.1591C12.8863 25.5654 13.3821 25.8812 13.9259 26.0812C14.4474 26.2781 15.0423 26.4156 15.9125 26.4531C16.7857 26.4907 17.0641 26.5 19.2874 26.5C21.5106 26.5 21.7889 26.4907 22.6622 26.4531C23.5323 26.4156 24.1305 26.2781 24.6487 26.0812C25.7492 25.6654 26.6193 24.8153 27.0447 23.7401C27.2462 23.2306 27.387 22.6492 27.4254 21.7991C27.4637 20.9458 27.4733 20.6739 27.4733 18.5016C27.4733 16.3293 27.4701 16.0574 27.4317 15.204ZM25.9571 21.7366C25.9219 22.518 25.7875 22.9399 25.6756 23.2212C25.4004 23.9183 24.8342 24.4715 24.1209 24.7403C23.833 24.8497 23.398 24.981 22.6014 25.0153C21.7377 25.0529 21.4786 25.0622 19.2937 25.0622C17.1089 25.0622 16.8466 25.0529 15.986 25.0153C15.1863 24.981 14.7544 24.8497 14.4665 24.7403C14.1115 24.6121 13.7883 24.409 13.5261 24.1433C13.2542 23.8838 13.0462 23.5713 12.915 23.2244C12.8031 22.9431 12.6687 22.518 12.6336 21.7397C12.5951 20.8958 12.5856 20.6426 12.5856 18.5078C12.5856 16.373 12.5951 16.1167 12.6336 15.276C12.6687 14.4946 12.8031 14.0726 12.915 13.7913C13.0462 13.4443 13.2542 13.1287 13.5293 12.8723C13.7947 12.6066 14.1146 12.4034 14.4697 12.2754C14.7576 12.166 15.1927 12.0347 15.9892 12.0003C16.8529 11.9628 17.1121 11.9534 19.2969 11.9534C21.485 11.9534 21.744 11.9628 22.6046 12.0003C23.4043 12.0347 23.8362 12.166 24.1241 12.2754C24.4791 12.4034 24.8022 12.6066 25.0645 12.8723C25.3364 13.1317 25.5444 13.4443 25.6756 13.7913C25.7875 14.0726 25.9219 14.4976 25.9571 15.276C25.9955 16.1199 26.0051 16.373 26.0051 18.5078C26.0051 20.6426 25.9955 20.8927 25.9571 21.7366Z" fill="white"/>
<path d="M19.2905 14.3916C16.9681 14.3916 15.0839 16.2325 15.0839 18.5018C15.0839 20.771 16.9681 22.612 19.2905 22.612C21.6129 22.612 23.4971 20.771 23.4971 18.5018C23.4971 16.2325 21.6129 14.3916 19.2905 14.3916ZM19.2905 21.1679C17.7839 21.1679 16.5618 19.974 16.5618 18.5018C16.5618 17.0296 17.7839 15.8356 19.2905 15.8356C20.7972 15.8356 22.0192 17.0296 22.0192 18.5018C22.0192 19.974 20.7972 21.1679 19.2905 21.1679V21.1679Z" fill="white"/>
<path d="M24.6456 14.2286C24.6456 14.7585 24.2058 15.1881 23.6634 15.1881C23.1211 15.1881 22.6814 14.7585 22.6814 14.2286C22.6814 13.6986 23.1211 13.269 23.6634 13.269C24.2058 13.269 24.6456 13.6986 24.6456 14.2286V14.2286Z" fill="white"/>
</svg>
