<svg width="37" height="36" viewBox="0 0 37 36" fill="none" xmlns="http://www.w3.org/2000/svg">
<path fill-rule="evenodd" clip-rule="evenodd" d="M19.3343 2.48758C28.3781 2.48758 35.7095 9.65106 35.7095 18.4874C35.7095 27.3241 28.3781 34.4876 19.3343 34.4876C10.2905 34.4876 2.95901 27.3241 2.95901 18.4874C2.95901 9.65106 10.2905 2.48758 19.3343 2.48758Z" fill="#070716"/>
<path d="M25.0768 11.5H13.6141C12.826 11.5 12.1812 12.13 12.1812 12.9V24.1C12.1812 24.87 12.826 25.5 13.6141 25.5H25.0768C25.8648 25.5 26.5096 24.87 26.5096 24.1V12.9C26.5096 12.13 25.8648 11.5 25.0768 11.5ZM16.4798 23.4H14.3305V17.1H16.4798V23.4ZM15.4051 15.91C14.6887 15.91 14.1156 15.35 14.1156 14.65C14.1156 13.95 14.6887 13.39 15.4051 13.39C16.1215 13.39 16.6947 13.95 16.6947 14.65C16.6947 15.35 16.1215 15.91 15.4051 15.91ZM24.3603 23.4H22.2111V19.69C22.2111 19.13 21.7096 18.64 21.1365 18.64C20.5633 18.64 20.0618 19.13 20.0618 19.69V23.4H17.9126V17.1H20.0618V17.94C20.4201 17.38 21.2081 16.96 21.8529 16.96C23.2141 16.96 24.3603 18.08 24.3603 19.41V23.4Z" fill="white"/>
</svg>
