<svg width="37" height="36" viewBox="0 0 37 36" fill="none" xmlns="http://www.w3.org/2000/svg">
<path fill-rule="evenodd" clip-rule="evenodd" d="M19.3726 2.48758C28.4164 2.48758 35.7478 9.65106 35.7478 18.4874C35.7478 27.3241 28.4164 34.4876 19.3726 34.4876C10.3288 34.4876 2.99732 27.3241 2.99732 18.4874C2.99732 9.65106 10.3288 2.48758 19.3726 2.48758Z" fill="#070716"/>
<path d="M29.6183 12.2988C28.8572 12.625 28.0461 12.8412 27.2004 12.9462C28.0704 12.4387 28.7343 11.6412 29.0465 10.68C28.2354 11.1525 27.3399 11.4863 26.3855 11.6725C25.6154 10.8713 24.5177 10.375 23.3203 10.375C20.997 10.375 19.1267 12.2175 19.1267 14.4763C19.1267 14.8013 19.1548 15.1137 19.2239 15.4112C15.7352 15.245 12.6482 13.6113 10.5744 11.1225C10.2124 11.7363 10 12.4388 10 13.195C10 14.615 10.7484 15.8737 11.864 16.6025C11.1898 16.59 10.5284 16.3988 9.96802 16.0975C9.96802 16.11 9.96802 16.1262 9.96802 16.1425C9.96802 18.135 11.4226 19.79 13.3301 20.1712C12.9885 20.2625 12.6162 20.3062 12.2299 20.3062C11.9612 20.3062 11.69 20.2912 11.4354 20.2362C11.9791 21.86 13.522 23.0537 15.3565 23.0925C13.9288 24.1837 12.116 24.8412 10.1535 24.8412C9.80939 24.8412 9.47933 24.8262 9.14926 24.785C11.0081 25.9562 13.2111 26.625 15.5868 26.625C23.3087 26.625 27.5305 20.375 27.5305 14.9575C27.5305 14.7762 27.5241 14.6013 27.5151 14.4275C28.348 13.85 29.0478 13.1288 29.6183 12.2988Z" fill="white"/>
</svg>
